<svg aria-hidden="true" style="position:absolute;width:0;height:0;overflow:hidden" xmlns="http://www.w3.org/2000/svg">
    <defs>

        <!-- modal-icon -->
        <symbol id="close">
            <path
                d="M11 1.108 9.892 0 5.5 4.392 1.108 0 0 1.108 4.392 5.5 0 9.892 1.108 11 5.5 6.608 9.892 11 11 9.892 6.608 5.5 11 1.108Z" />
        </symbol>
        <symbol id="icon-man" viewBox="0 0 12 12">
            <path
                d="M6 6a3 3 0 1 0 0-6 3 3 0 1 0 0 6Zm0 1.5c-2.002 0-6 1.005-6 3v.75c0 .412.338.75.75.75h10.5c.412 0 .75-.338.75-.75v-.75c0-1.995-3.998-3-6-3Z" />
        </symbol>
        <symbol id="icon-tel" viewBox="0 0 14 14">
            <path
                d="m11.996 9.123-1.838-.21a1.44 1.44 0 0 0-1.187.412l-1.332 1.332a10.888 10.888 0 0 1-4.769-4.77L4.21 4.55a1.44 1.44 0 0 0 .412-1.187l-.21-1.824a1.448 1.448 0 0 0-1.44-1.28H1.72C.902.257.222.937.272 1.754c.384 6.18 5.327 11.116 11.5 11.5.817.05 1.498-.63 1.498-1.448v-1.252a1.434 1.434 0 0 0-1.274-1.432Z" />
        </symbol>
        <symbol id="icon-mail" viewBox="0 0 16 12">
            <path
                d="M14 0H2C1.175 0 .507.675.507 1.5l-.007 9c0 .825.675 1.5 1.5 1.5h12c.825 0 1.5-.675 1.5-1.5v-9C15.5.675 14.825 0 14 0Zm-.3 3.188L8.398 6.502a.759.759 0 0 1-.795 0L2.3 3.187a.637.637 0 1 1 .675-1.08L8 5.25l5.025-3.143a.637.637 0 1 1 .675 1.08Z" />
        </symbol>
        <symbol id="icon-checkbox" viewBox="0 0 16 15">
            <path
                d="m3.957 7.752-.069-.066-.069.065-.888.842-.076.072.076.073 3.496 3.334.069.066.069-.066 7.504-7.158.076-.073-.076-.072-.882-.841-.069-.066-.069.066-6.553 6.246-2.539-2.422Z" />
        </symbol>

        <!-- burger-icon -->
        <symbol id="icon-menu" viewBox="0 0 24 16">
            <path d="M0 2.667V0h24v2.667H0Zm0 6.666h24V6.667H0v2.666ZM0 16h24v-2.667H0V16Z" />
        </symbol>
        <symbol id="icon-cross" viewBox="0 0 19 19">
            <path
                d="M18.667 1.88 16.787 0 9.333 7.453 1.88 0 0 1.88l7.453 7.453L0 16.787l1.88 1.88 7.453-7.454 7.454 7.454 1.88-1.88-7.454-7.454 7.454-7.453Z" />
        </symbol>

        <!-- others-icon -->
        <symbol id="icon-logo" viewBox="0 0 199 50">
            <ellipse cx="25" cy="25.5" rx="24" ry="24.5" fill="#fff" />
            <path
                d="M18.5.9A24.6 24.6 0 0 0 0 25a24 24 0 0 0 12.8 21.7c4.1 2.1 4.7.6.9-2.3-2.7-2.2-3.2-3.2-3.2-6.9 0-2.6-.6-4.7-1.5-5.5-1.9-1.5-2-5.4-.2-6.8.7-.6 1.4-2.6 1.5-4.4C10.8 14.2 17.9 8 25 8c7.1 0 14.2 6.2 14.7 12.8.1 1.8.9 3.8 1.6 4.4 1.8 1.4 1.6 5.3-.2 6.8-1 .8-1.6 3-1.6 5.5 0 3.7-.5 4.7-3.2 7-4.2 3.2-3 4.4 1.7 1.5 6.7-4 11.6-13 11.6-20.9C49.7 9.3 33.2-3.5 18.5 1Z" />
            <path
                d="M19.8 12.5c-1.8.8-3.3 1.8-3.3 2.4 0 1 5.4 3.1 8.6 3.1 3 0 8.5-2 8.5-3.1 0-1.2-6.2-4-8.7-4-1 .2-3.4.8-5 1.6ZM71.6 17.7c-1.5.4-1.8 1.7-1.8 9V35H77l-.3-8.7c-.3-9.1-.7-9.8-5-8.6ZM83.4 18.2c-3.3 1.8-4.5 4-4.5 8.3 0 6 3.2 8.7 9.1 8.3 4-.3 4.5-.6 4.8-3 .3-2.6 0-2.8-3-2.6-3.3.3-3.4.1-3.4-3.2 0-3.3.2-3.5 3.2-3.2 2.4.2 3.3-.2 3.7-1.7.2-1 0-2.4-.6-3-1.4-1.4-6.7-1.4-9.3.1ZM95.4 18.3c-.3.8-.4 4.7-.2 8.8l.3 7.4h6.5c6 0 6.6-.2 6.9-2.3.3-1.9-.1-2.2-3.2-2.2-2 0-3.7-.5-3.7-1 0-.6 1.4-1 3-1 2.4 0 3-.4 3-2s-.6-2-3-2c-1.6 0-3-.5-3-1 0-.6 1.3-1 3-1 2.8 0 4.7-2.2 3.5-4.1-1-1.5-12.5-1.1-13.1.4ZM115.6 18c-3.3 1.3-4.6 3.6-4.7 7.8-.1 7.2 2.8 9.7 10.3 9 3-.2 3.5-.7 3.5-2.8 0-2.2-.4-2.5-3.3-2.2-2.4.2-3.3 0-3.8-1.7-.9-3 1-5.6 4.3-5.6 1.9 0 2.9-.6 3-1.9.8-3.2-4.4-4.7-9.3-2.6ZM128 17.6c-.5.4-.8 4.5-.8 9.1v8.4l3.2-.3c2.5-.2 3.4-.9 4-2.8l.5-2.5.8 2.7c.6 2.3 1.3 2.8 4 2.8 4.3 0 4.8-.7 3-4.2-1.1-2.2-1.3-3.3-.5-4 1.3-1.4 1.4-5.8.2-7.7-1-1.6-13.1-3-14.4-1.5Zm8.2 5.4c0 1.1-.4 2-1 2-.5 0-1-.9-1-2s.5-2 1-2c.6 0 1 .9 1 2ZM146 17.7c-.4.3-.7 4.4-.7 9V35h6.5c6.4 0 6.6 0 6.6-2.5 0-2-.5-2.5-3-2.5-1.7 0-3-.5-3-1 0-.6 1-1 2.5-1 1.8 0 2.5-.5 2.5-2s-.7-2-2.5-2c-1.5 0-2.6-.5-2.6-1 0-.6 1.4-1 3-1 2.6 0 3-.4 3-2.5 0-2.4-.2-2.5-5.8-2.5-3.2 0-6.2.3-6.5.7ZM166.3 17.6c-1.8.5-6.4 13.8-5.5 16 .8 2 5.3 1.8 6.5-.3 1-1.7 1-1.7 2.9 0 2.3 2 7.3 2.3 7.3.4 0-.6-1-4.6-2.3-8.7-2-6.6-2.6-7.5-4.7-7.7a24 24 0 0 0-4.2.3Zm2.8 9.1c-.3 1-.5.4-.5-1.2 0-1.7.2-2.4.5-1.8.2.7.2 2.1 0 3ZM180.8 17.7c-.9.3-1.3 3.1-1.3 9V35h3c2.4 0 3-.5 3.3-2.8.4-2.6.4-2.6 1.3-.5.4 1.3 1.4 2.3 2 2.3.9 0 2-1 2.5-2.3.8-2 .9-2 .9.6 0 2.5.4 2.8 3.2 2.5l3.1-.3.1-8.3c.2-7.7.1-8.3-2-8.8-3.2-.8-6 1.1-6.8 4.8l-.7 3.3-1.1-3.5c-1.4-4.7-3.6-6-7.5-4.3ZM14 18.7c-.2.4-.5 1.7-.5 3 0 2.3 0 2.3 11.6 2.3 11.4 0 11.5 0 11.5-2.3 0-3.4-.9-3.8-4.1-2.2a20.1 20.1 0 0 1-14.9 0c-1.6-.8-3.1-1.1-3.5-.8ZM11.2 27.6c-1.6 1.7 1 2.4 9 2.4h8.4v3.5c0 2 .5 3.5 1 3.5.6 0 1-1.5 1-3.4 0-3.3.2-3.5 4-3.8 2.2-.2 4-.8 4-1.3 0-1-26.3-2-27.4-.9Z" />
            <path
                d="M13.5 36.4C13.5 42 15.4 43 25 43c9.6 0 11.5-1 11.5-6.6 0-2.4-.5-3.4-1.5-3.4-.9 0-1.5 1-1.5 2.4 0 5.6-7.6 6.1-8.7.6-.5-2.9-.9-3-6-3h-5.4v3.4ZM19.7 47.7c.6 3.2 10.9 3 10.9-.2 0-1-1.3-1.5-5.6-1.5-4.8 0-5.6.3-5.3 1.7Z" />
        </symbol>
        <symbol id="icon-more" viewBox="0 0 8 10" fill="none">
            <path d="m1.107 1 5.258 4-5.258 4" stroke="#D41443" stroke-width="2" />
        </symbol>
        <symbol id="icon-more_2" viewBox="0 0 8 10" fill="none">
            <path d="m1.107 1 5.258 4-5.258 4" stroke="#ffffff" stroke-width="2" />
        </symbol>
        <symbol id="icon-arrow" viewBox="0 0 32 32">
            <path
                d="M31.489 14.757l-11.556-11.557c-0.33-0.33-0.77-0.511-1.238-0.511s-0.909 0.181-1.239 0.511l-1.049 1.050c-0.33 0.329-0.511 0.769-0.511 1.238s0.182 0.924 0.511 1.253l6.742 6.757h-21.419c-0.966 0-1.729 0.756-1.729 1.722v1.484c0 0.966 0.763 1.798 1.729 1.798h21.495l-6.818 6.794c-0.33 0.33-0.511 0.758-0.511 1.227s0.182 0.903 0.511 1.232l1.049 1.046c0.33 0.33 0.769 0.51 1.239 0.51s0.908-0.182 1.238-0.512l11.556-11.556c0.331-0.331 0.513-0.773 0.511-1.242 0.001-0.471-0.181-0.913-0.511-1.244z" />
        </symbol>
        <symbol id="icon-advantages-1" viewBox="0 0 33 50">
            <path
                d="M3.6.2c-.5.3-.8.9-.8 1.6 0 1.3.3 2.4 1 3.4l.2.5-.5.6c-.6.7-.7.9-1 1.7a5 5 0 0 0 0 2.5 4.2 4.2 0 0 0 6.9 1.9l.6-.5.5.3 1.2.5.6.2V14c0 1.7.3 2.8 1.2 3.7 1 1 2.4 1.4 3.6 1.2 1-.2 1.8-.6 2.4-1.2.9-1 1.2-2 1.2-3.7v-1l.6-.3 1.2-.5.5-.3.6.5c.7.6 1.1.8 1.9 1 2.2.6 4.4-.7 5-3a5 5 0 0 0 0-2.4c-.3-.8-.4-1-1-1.7l-.5-.6.3-.5c.6-1 1-2.1 1-3.4 0-.7-.4-1.3-1-1.6L29 0H4.1l-.5.2Zm23 3c0 .1-.2.6-.6 1.1-1 1.6-1 2 .4 3.4.5.5 1 1 1 1.2.4.7-.3 1.6-1.1 1.4-.2 0-.7-.4-1.3-1-1.2-1.2-1.6-1.3-2.6-.8-1 .6-2.4 1.3-3.1 1.4-1 .3-1.3.5-1.5 1-.2.4-.2.6-.2 2.2 0 1.9-.1 2.2-.7 2.5-.4.2-.4.2-.8 0-.6-.3-.7-.6-.7-2.5 0-1.6 0-1.8-.2-2.2-.2-.5-.6-.7-1.5-1-.8-.2-2-.7-2.7-1.2-.6-.4-1.2-.5-1.6-.5-.3.1-.6.3-1.4 1-.6.7-1 1-1.3 1-.8.3-1.5-.6-1.1-1.3 0-.2.5-.7 1-1.2C7.9 6.3 8 6 7 4.3l-.7-1a401.2 401.2 0 0 1 20.4 0ZM.8 20.6c-.5.4-.8.8-.8 1.4l5 27c.1.2.5.6.9.8.3.2.6.2 10.6.2s10.3 0 10.6-.2c.4-.2.8-.6.9-.9l5-27c0-.5-.3-1-.8-1.3l-.3-.2H1.1l-.3.2Zm28.4 3.6c0 .8-.6 2.5-1 3.2-2 3.8-5.9 6-10.6 6.3-3.5.2-6.5-.5-9-2.2a11 11 0 0 1-4.8-7.3v-.6h25.5v.6ZM7 34.2a18.6 18.6 0 0 0 15.4 1.9c1.7-.6 3.5-1.5 5-2.7.4-.3.4-.3.4 0l-1.3 6.5-1.2 6.7v.2H7.8v-.2l-1.3-6.7-1.3-6.6c0-.2 0-.2.4.1l1.2.8Z" />
        </symbol>
        <symbol id="icon-advantages-2" viewBox="0 0 50 50">
            <path
                d="M46.1 33.5c-2-.8-3.7-.6-5 0 .2-1.4.7-2.9 1.8-3.9a1.7 1.7 0 1 0-2.3-2.4c-1.9 1.7-2.6 4.3-2.9 6.3-.5-.2-1-.4-1.6-.4l3-15.4a1.7 1.7 0 0 0-1.7-2H37l.2-2.3c0-3-1.4-5.4-3.7-6.3-2.2-.7-4-.5-5.5.1.2-1.5.8-3.2 2-4.3A1.7 1.7 0 1 0 27.8.4a11 11 0 0 0-3 6.9 6.8 6.8 0 0 0-4.3-.5c-1.7-2.5-4-3.6-6.4-3a7.1 7.1 0 0 0-4.5 3 7.4 7.4 0 0 1-.7-4.7 1.7 1.7 0 0 0-3.3-.8 11 11 0 0 0 1.2 7.4c-1.6.2-3.3 1-4.8 3a5.3 5.3 0 0 0-1 4.1 1.7 1.7 0 0 0-1 1.9l6 31c.1.7.8 1.3 1.6 1.3h23.8c.8 0 1.5-.6 1.7-1.3v-.4c.5.4 1 .6 1.5.8a8 8 0 0 0 4.7.2 8.3 8.3 0 0 0 4.8-.2c3.7-1.4 5.6-6 5.6-9.6 0-3-1.4-5.3-3.6-6ZM35.3 19c-.8 7.4-7 12.4-15.6 12.4S4.9 26.4 4.1 19h31.2Zm-10.4-7.3a1.6 1.6 0 0 0 3 0s.4-.7 1.1-1.2c1-.6 2.1-.7 3.4-.2 1.4.5 1.5 2.4 1.5 3.1a9 9 0 0 1-.3 2.3h-11c.3-1.8 0-3.9-.5-5.7.5 0 1 .2 1.6.5.7.5 1.2 1.2 1.2 1.2Zm-20.2 2c.8-1.2 1.8-1.7 3-1.7.9 0 1.6.3 1.6.3.6.3 1.2.3 1.7 0 .5-.4.8-1 .8-1.6 0 0-.2-3 3-3.7 1.4-.3 2.6 1.2 3 1.8 1.3 2 2 4.9 1.3 7H4.5c-.3-.8-.3-1.6.2-2.2Zm4.3 33L5.7 29.5l.7.6c3.4 3 8.1 4.6 13.3 4.6 5.1 0 9.9-1.6 13.3-4.6l.3-.2-.7 3.5h-.1c-2.2.8-3.5 3-3.6 6 0 1.9.5 4 1.4 5.7l-.3 1.6H9Zm34-.7c-1.6.5-3 0-3 0-.5-.2-.9-.2-1.3 0 0 0-1.5.5-3 0-2-.8-3.4-4-3.4-6.5 0-.7.1-2.5 1.3-3l1.5-.2c1.7 0 2.6 1.3 2.8 1.6a1.6 1.6 0 0 0 2.9 0c.2-.4 1.5-2.3 4.2-1.3 1.2.4 1.4 2.2 1.4 2.9 0 2.5-1.4 5.7-3.5 6.5Z" />
        </symbol>
        <symbol id="icon-advantages-3" viewBox="0 0 44 50">
            <path
                d="M1 18.1c1 4.4 3.2 8.3 6.5 11.7 3 3 5.6 4.8 9.8 6.7l2 1v13.8H22V38.5h1.8v12.8H26.7V37.5l2-.9c4-1.9 6.9-3.9 9.7-6.7 4.5-4.6 6.8-9.9 6.8-15.6 0-6.2-3.2-11.3-8.4-13A9.2 9.2 0 0 0 33 .7M1 18 23.3 4.6H23M1 18A19 19 0 0 1 1 11c1.2-5.2 4.8-9 9.5-10M1.1 18 10.5 1M33 .8V1 .8Zm0 0-2.3.1a16.4 16.4 0 0 0-7 3.1l-.7.5m0 0-.8-.6c-2.8-2-5.5-3-8.8-3.1a26.6 26.6 0 0 0-2.9 0M23 4.6 10.5 1m10.9 6-1.9-1.4a16 16 0 0 0-2.1-1.1c-.6-.3-1.7-.6-2.5-.7-3.2-.6-5.6 0-7.8 2a11 11 0 0 0-1.7 1.9 46.3 46.3 0 0 0 1.9.3c2 .3 3.5.7 5.2 1.5 1.7.8 3.4 2 5.8 3.8 1 .7 2.7 1.7 4.3 2.5a61.3 61.3 0 0 1 3.1 1.7 2.9 2.9 0 0 1 .9 1.8l.1 4.1a52.4 52.4 0 0 0 .3 4.3c.4.4 1 .3 1.3 0l.2-.7V24c0-2 0-3.1.3-3.9.1-.4.2-.7.5-1l.8-.8 1-.5 2-.3a26.2 26.2 0 0 0 9-2.6c.2 0 .3-.2.3-.4v-1l-.4-2.8c-1.1-4.3-4.7-7.4-8.6-7.4a14 14 0 0 0-8.7 3.4 8 8 0 0 1-.9.7c-.3.2-.5.3-.8.3-.3 0-.5 0-.8-.2l-.8-.7Zm-16.2.6Zm9.4 6.5a18 18 0 0 0-9-3.6 11.3 11.3 0 0 0-1.5 0l-.3.8-.2 1.5v3.1c.5 4.8 2.6 8.8 6.6 12.6 3 3 7 5.4 11.4 6.9l1.4.5 1.4-.5a32 32 0 0 0 11.1-6.5c2-2 3.1-3.2 4.4-5.5a24.6 24.6 0 0 0 2-5l-.2.2-1.2.4c-2 .7-4.8 1.3-7.2 1.5l-1.2.2c-.3 0-.4.1-.5.3l-.2 1.1v2.2a126.4 126.4 0 0 1-.2 3.7c0 .4-.2.6-.3.9l-.6.7c-.3.4-.7.7-1.1.9l-1.5.2a4 4 0 0 1-2-.5c-.6-.4-1-.9-1.4-1.6a51.7 51.7 0 0 1-.4-8 7.7 7.7 0 0 0-.2-1v-.1h-.1c-.1-.2-.2-.2-.4-.3l-1-.5a27.8 27.8 0 0 1-7.6-4.6ZM4 10.4Zm.1 0Z" />
        </symbol>
        <symbol id="icon-quotes" viewBox="0 0 54 40">
            <path
                d="M40 0c2.4 0 4.7.7 6.8 2 2.2 1.3 4 3.1 5.3 5.6a21 21 0 0 1-.5 18.3c-.5 1-1.5 2.6-2.9 4.3a79.3 79.3 0 0 1-4 4.7l-5 5.1-3.7-6c2.5-1.6 4.7-3.5 6.7-5.9 1.9-2.2 2.9-4.3 2.9-6.2a4 4 0 0 0-.7-2.4c-1.9 1.4-4 2-6.2 2-1.7 0-3.3-.5-4.8-1.5s-2.8-2.3-3.7-3.9a9.2 9.2 0 0 1 .3-10.3c1-1.8 2.4-3.2 4.2-4.3C36.4.5 38.2 0 40 0ZM11.2 0c2.4 0 4.7.7 6.8 2 2.1 1.3 3.9 3.1 5.2 5.6a20.5 20.5 0 0 1 1 14.9c-.5 1.8-1.5 3.8-3 5.9a46 46 0 0 1-4 4.9C16 34.6 14 36.9 10.9 40l-3.6-6C9.7 32.4 12 30.5 14 28c2-2.2 2.9-4.3 2.9-6.2a4 4 0 0 0-.6-2.4c-2 1.4-4 2-6.3 2-1.7 0-3.3-.5-4.8-1.5s-2.7-2.3-3.7-3.9A9.2 9.2 0 0 1 0 11.2c0-1.9.5-3.7 1.6-5.4C2.6 4 4.1 2.6 6 1.5 7.6.5 9.3 0 11.2 0Z" />
        </symbol>
        <symbol id="icon-home" viewBox="0 0 13 12">
            <path
                d="M12.2 5.8c.3-.3.2-.6 0-.9L6.7.2a.7.7 0 0 0-1 0l-5.5 5c-.3.2-.3.6 0 .8l.1.2c.2.2.6.2.8 0l.5-.3v5.3c0 .4.2.6.6.6h2.1c.4 0 .6-.2.6-.6V7.5h2.8v3.7c0 .4.2.6.6.6h2.3c.3 0 .6-.2.6-.6V6l.2.3c.2 0 .5 0 .7-.3l.1-.1Z" />
        </symbol>
        <symbol id="icon-mastercard" viewBox="0 0 36 32">
            <path d="M30.181 25.644c0 0.425-0.288 0.731-0.7 0.731-0.425 0-0.7-0.325-0.7-0.731s0.275-0.731
                0.7-0.731c0.413 0 0.7 0.325 0.7 0.731zM10.756 24.913c-0.444 0-0.7 0.325-0.7 0.731s0.256 0.731 0.7
                0.731c0.406 0 0.681-0.306 0.681-0.731-0.006-0.406-0.275-0.731-0.681-0.731zM18.1 24.894c-0.337 0-0.544
                0.219-0.594 0.544h1.194c-0.056-0.356-0.275-0.544-0.6-0.544zM24.837 24.913c-0.425 0-0.681 0.325-0.681
                0.731s0.256 0.731 0.681 0.731c0.425 0 0.7-0.306 0.7-0.731 0-0.406-0.275-0.731-0.7-0.731zM31.456 26.544c0
                0.019 0.019 0.031 0.019 0.069 0 0.019-0.019 0.031-0.019 0.069-0.019 0.019-0.019 0.031-0.031 0.050-0.019
                0.019-0.031 0.031-0.069 0.031-0.019 0.019-0.031 0.019-0.069 0.019-0.019 0-0.031 0-0.069-0.019-0.019
                0-0.031-0.019-0.050-0.031-0.019-0.019-0.031-0.031-0.031-0.050-0.019-0.031-0.019-0.050-0.019-0.069
                0-0.031 0-0.050 0.019-0.069 0-0.031 0.019-0.050 0.031-0.069 0.019-0.019 0.031-0.019 0.050-0.031
                0.031-0.019 0.050-0.019 0.069-0.019 0.031 0 0.050 0 0.069 0.019 0.031 0.019 0.050 0.019 0.069
                0.031s0.012 0.038 0.031 0.069zM31.319 26.631c0.031 0 0.031-0.019 0.050-0.019 0.019-0.019 0.019-0.031
                0.019-0.050s0-0.031-0.019-0.050c-0.019 0-0.031-0.019-0.069-0.019h-0.1v0.219h0.050v-0.087h0.019l0.069
                0.087h0.050l-0.069-0.081zM36 5.063v22c0 1.656-1.344 3-3 3h-30c-1.656 0-3-1.344-3-3v-22c0-1.656 1.344-3
                3-3h30c1.656 0 3 1.344 3 3zM4 13.787c0 4.781 3.881 8.656 8.656 8.656 1.7 0 3.369-0.512
                4.781-1.444-4.556-3.706-4.525-10.7 0-14.406-1.413-0.938-3.081-1.444-4.781-1.444-4.775-0.006-8.656
                3.875-8.656 8.637zM18 20.587c4.406-3.438 4.387-10.137 0-13.594-4.387 3.456-4.406 10.163 0 13.594zM9.106
                25.356c0-0.544-0.356-0.9-0.919-0.919-0.287 0-0.594 0.087-0.8
                0.406-0.15-0.256-0.406-0.406-0.763-0.406-0.237 0-0.475 0.087-0.662
                0.337v-0.275h-0.513v2.294h0.513c0-1.181-0.156-1.887 0.563-1.887 0.638 0 0.513 0.637 0.513
                1.887h0.494c0-1.144-0.156-1.887 0.562-1.887 0.637 0 0.512 0.625 0.512 1.887h0.512v-1.438zM11.912
                24.5h-0.494v0.275c-0.169-0.206-0.406-0.337-0.731-0.337-0.644 0-1.137 0.512-1.137 1.206 0 0.7 0.494 1.206
                1.137 1.206 0.325 0 0.563-0.119 0.731-0.337v0.288h0.494v-2.3zM14.444 26.1c0-0.938-1.431-0.512-1.431-0.95
                0-0.356 0.744-0.3 1.156-0.069l0.206-0.406c-0.588-0.381-1.887-0.375-1.887 0.512 0 0.894 1.431 0.519 1.431
                0.938 0 0.394-0.844 0.363-1.294 0.050l-0.219 0.394c0.7 0.475 2.037 0.375 2.037-0.469zM16.656
                26.681l-0.137-0.425c-0.238 0.131-0.762
                0.275-0.762-0.256v-1.038h0.819v-0.462h-0.819v-0.7h-0.512v0.7h-0.475v0.456h0.475v1.044c0 1.1 1.081 0.9
                1.412 0.681zM17.488 25.844h1.719c0-1.012-0.462-1.413-1.087-1.413-0.663 0-1.137 0.494-1.137 1.206 0 1.281
                1.413 1.494 2.113 0.887l-0.238-0.375c-0.488 0.4-1.225 0.363-1.369-0.306zM21.181
                24.5c-0.288-0.125-0.725-0.113-0.95 0.275v-0.275h-0.512v2.294h0.512v-1.294c0-0.725 0.594-0.631
                0.8-0.525l0.15-0.475zM21.844 25.644c0-0.712 0.725-0.944
                1.294-0.525l0.238-0.406c-0.725-0.569-2.044-0.256-2.044 0.938 0 1.238 1.4 1.488 2.044
                0.938l-0.238-0.406c-0.575 0.406-1.294 0.163-1.294-0.538zM26.012
                24.5h-0.512v0.275c-0.519-0.688-1.869-0.3-1.869 0.869 0 1.2 1.4 1.544 1.869
                0.869v0.288h0.512v-2.3zM28.119 24.5c-0.15-0.075-0.688-0.181-0.95
                0.275v-0.275h-0.494v2.294h0.494v-1.294c0-0.688 0.563-0.644 0.8-0.525l0.15-0.475zM30.637
                23.569h-0.494v1.206c-0.512-0.681-1.869-0.319-1.869 0.869 0 1.212 1.406 1.538 1.869
                0.869v0.288h0.494v-3.231zM31.113 18.875v0.288h0.050v-0.288h0.119v-0.050h-0.288v0.050h0.119zM31.525
                26.613c0-0.031 0-0.069-0.019-0.1-0.019-0.019-0.031-0.050-0.050-0.069s-0.050-0.031-0.069-0.050c-0.031
                0-0.069-0.019-0.1-0.019-0.019 0-0.050 0.019-0.087 0.019-0.031 0.019-0.050 0.031-0.069 0.050-0.031
                0.019-0.050 0.050-0.050 0.069-0.019 0.031-0.019 0.069-0.019 0.1 0 0.019 0 0.050 0.019 0.087 0 0.019
                0.019 0.050 0.050 0.069 0.019 0.019 0.031 0.031 0.069 0.050 0.031 0.019 0.069 0.019 0.087 0.019 0.031 0
                0.069 0 0.1-0.019 0.019-0.019 0.050-0.031 0.069-0.050s0.031-0.050 0.050-0.069c0.019-0.038 0.019-0.069
                0.019-0.087zM31.725 18.819h-0.087l-0.1 0.219-0.1-0.219h-0.087v0.337h0.050v-0.256l0.1
                0.219h0.069l0.087-0.219v0.256h0.069v-0.337zM32 13.787c0-4.763-3.881-8.644-8.656-8.644-1.7 0-3.369
                0.513-4.781 1.444 4.506 3.706 4.575 10.719 0 14.406 1.413 0.938 3.094 1.444 4.781 1.444 4.775 0.006
                8.656-3.869 8.656-8.65z" />
        </symbol>
        <symbol id="icon-visa" viewBox="0 0 36 32">
            <path d="M29.381 14.456s0.475 2.325 0.581 2.813h-2.087c0.206-0.556 1-2.719 1-2.719-0.012 0.019 0.206-0.569
                0.331-0.931l0.175 0.838zM36 5v22c0 1.656-1.344 3-3 3h-30c-1.656 0-3-1.344-3-3v-22c0-1.656 1.344-3
                3-3h30c1.656 0 3 1.344 3 3zM9.531 20.7l3.95-9.7h-2.656l-2.456
                6.625-0.269-1.344-0.875-4.463c-0.144-0.619-0.588-0.794-1.138-0.819h-4.044l-0.044 0.194c0.988 0.25 1.869
                0.613 2.638 1.069l2.237 8.438h2.656zM15.431 20.712l1.575-9.713h-2.512l-1.569 9.713h2.506zM24.175
                17.538c0.012-1.106-0.663-1.95-2.106-2.644-0.881-0.444-1.419-0.744-1.419-1.2 0.012-0.412 0.456-0.838
                1.444-0.838 0.819-0.019 1.419 0.175 1.869 0.369l0.225 0.106
                0.344-2.1c-0.494-0.194-1.281-0.412-2.25-0.412-2.481 0-4.225 1.325-4.238 3.213-0.019 1.394 1.25 2.169 2.2
                2.638 0.969 0.475 1.3 0.788 1.3 1.206-0.012 0.65-0.788 0.95-1.506 0.95-1
                0-1.538-0.156-2.356-0.519l-0.331-0.156-0.35 2.181c0.587 0.269 1.675 0.506 2.8 0.519 2.637 0.006
                4.356-1.3 4.375-3.313zM33 20.712l-2.025-9.713h-1.944c-0.6 0-1.056 0.175-1.313 0.806l-3.731
                8.906h2.637s0.431-1.2 0.525-1.456h3.225c0.075 0.344 0.3 1.456 0.3 1.456h2.325z" />
        </symbol>

        <!-- sociale-icon -->
        <symbol id="icon-github" viewBox="0 0 20 20">
            <path
                d="M10 .6A9.4 9.4 0 0 0 .6 10c0 4.4 3 8.4 7.2 9.4v-3.1H6.6c-.6-.2-1-.6-1.3-1.1-.3-.4-.6-.8-1-.8l-.1-1c.8-.1 1.6.5 2 1.2.2.3.4.5.7.6h1c0-.8.3-1 .6-1.4-2.5-.4-3.4-1.7-3.8-2.7-.5-1.4-.3-3 .6-4.1v-.1c-.3-1.3.2-2.3.2-2.5.5.2.5-.1 2 .8l.3.2H8a8 8 0 0 1 2-.3 8 8 0 0 1 2 .3h.2c1.9-1.2 1.8-.8 2.3-1 0 .2.5 1.2.1 2.5 0 .1 1.7 1.7.7 4.2-.4 1-1.3 2.3-3.8 2.7.3.5.7.7.7 1.7v4c4.1-1 7.2-5 7.2-9.5 0-5.2-4.2-9.4-9.4-9.4Z" />
        </symbol>
        <symbol id="icon-telegram" viewBox="0 0 20 16">
            <path
                d="m8.1 10.4-.3 4.1c.4 0 .6-.1.9-.4l2.1-1.9 4.4 3c.8.5 1.4.3 1.6-.6l3-12.7C20 .8 19.2.3 18.4.6l-17 6.1C.3 7.1.3 7.7 1.3 8l4.3 1.3 10.1-6c.5-.2 1 0 .6.2L8 10.4Z" />
        </symbol>
        <symbol id="icon-facebook" viewBox="0 0 10 20">
            <path d="M9 10H6.2v9.6h-4V10H.6V6.6h1.9V4.4c0-1.6.7-4 4-4h2.9v3.3H7c-.3 0-.8.2-.8 1v1.9h3L8.9 10Z" />
        </symbol>
    </defs>
</svg>